<svg width="132" height="18" viewBox="0 0 132 18" fill="none" xmlns="http://www.w3.org/2000/svg">
<path d="M8.4432 0L0.61084 17.2033H3.15645L5.0572 12.9024H14.2545L16.1552 17.2033H18.7497L10.891 0H8.44508H8.4432ZM5.92391 10.9372L9.65396 2.49634L13.384 10.9372H5.92391Z" fill="#DFDFDF"/>
<path d="M24.8298 0H22.3594V17.2033H24.8298V0Z" fill="#DFDFDF"/>
<path d="M41.0378 11.255C42.1075 10.7801 42.931 10.0957 43.5082 9.20374C44.0835 8.30992 44.373 7.2422 44.373 5.99683C44.373 4.75146 44.0853 3.67813 43.5082 2.77683C42.931 1.87553 42.1075 1.1874 41.0378 0.712439C39.9661 0.23748 38.6745 0 37.1573 0H30.4116V17.2033H32.882V11.9694H37.1573C37.5371 11.9694 37.9037 11.9544 38.2553 11.9245L41.9759 17.2033H44.67L40.5659 11.4439C40.7276 11.3859 40.8855 11.3242 41.0378 11.2569V11.255ZM37.084 9.87878H32.8839V2.13732H37.084C38.6651 2.13732 39.8646 2.4739 40.6787 3.1452C41.4946 3.8165 41.9007 4.76642 41.9007 5.99496C41.9007 7.2235 41.4927 8.17903 40.6787 8.85781C39.8627 9.53846 38.6651 9.87691 37.084 9.87691V9.87878Z" fill="#DFDFDF"/>
<path d="M61.4593 8.57732C61.2055 8.46325 60.9348 8.3735 60.6565 8.29683C60.6678 8.29122 60.681 8.28748 60.6922 8.28187C61.401 7.93781 61.965 7.44602 62.3843 6.8065C62.8054 6.16699 63.0141 5.38163 63.0141 4.44667C63.0141 3.07041 62.4783 1.98585 61.4085 1.19114C60.3369 0.396423 58.8046 0 56.8118 0H49.0527V17.2033H57.3062C59.4965 17.2033 61.1491 16.7975 62.2602 15.9878C63.3713 15.1781 63.9278 14.0337 63.9278 12.5602C63.9278 11.5767 63.706 10.7539 63.2604 10.0901C62.8148 9.42626 62.2132 8.92325 61.4574 8.57919L61.4593 8.57732ZM56.5918 1.98959C57.8439 1.98959 58.8159 2.21959 59.5078 2.67772C60.1996 3.13585 60.5456 3.82398 60.5456 4.74211C60.5456 5.66024 60.1996 6.34837 59.5078 6.8065C58.8159 7.26464 57.8439 7.49464 56.5918 7.49464H51.5269V1.98959H56.5918ZM60.3482 14.5237C59.6225 14.9818 58.5772 15.2118 57.2103 15.2118H51.5269V9.4861H57.2103C58.5772 9.4861 59.6225 9.7161 60.3482 10.1742C61.072 10.6324 61.4349 11.3616 61.4349 12.362C61.4349 13.3624 61.072 14.0655 60.3482 14.5255V14.5237Z" fill="#DFDFDF"/>
<path d="M70.8615 0H68.3911V17.2033H70.8615V0Z" fill="#DFDFDF"/>
<path d="M78.9362 0H76.4658V17.2033H88.3008V15.0641H78.9362V0Z" fill="#DFDFDF"/>
<path d="M95.0202 0H92.5498V17.2033H95.0202V0Z" fill="#DFDFDF"/>
<path d="M98.9326 2.13732H104.862V17.2033H107.308V2.13732H113.24V0H98.9326V2.13732Z" fill="#DFDFDF"/>
<path d="M131.723 0H129.277L123.718 9.07472L118.183 0H115.538L122.407 11.212V17.2033H124.853V11.2494L131.723 0Z" fill="#DFDFDF"/>
</svg>
