<svg width="153" height="20" viewBox="0 0 153 20" fill="none" xmlns="http://www.w3.org/2000/svg">
<path d="M9.10567 0L0 20H2.95945L5.16921 15H15.8617L18.0715 20H21.0877L11.9515 0H9.10786H9.10567ZM6.17682 12.7152L10.5133 2.90217L14.8497 12.7152H6.17682Z" fill="#DFDFDF"/>
<path d="M28.1562 0H25.2842V20H28.1562V0Z" fill="#DFDFDF"/>
<path d="M46.9991 13.0848C48.2428 12.5326 49.2002 11.737 49.8712 10.7C50.54 9.66087 50.8766 8.41956 50.8766 6.97174C50.8766 5.52391 50.5422 4.27609 49.8712 3.22826C49.2002 2.18043 48.2428 1.38043 46.9991 0.828261C45.7533 0.276087 44.2517 0 42.4878 0H34.6455V20H37.5175V13.9152H42.4878C42.9294 13.9152 43.3556 13.8978 43.7643 13.863L48.0898 20H51.2219L46.4505 13.3043C46.6385 13.237 46.8221 13.1652 46.9991 13.087V13.0848ZM42.4026 11.4848H37.5197V2.48478H42.4026C44.2408 2.48478 45.6353 2.87609 46.5817 3.65652C47.5303 4.43696 48.0024 5.5413 48.0024 6.96956C48.0024 8.39783 47.5281 9.5087 46.5817 10.2978C45.6331 11.0891 44.2408 11.4826 42.4026 11.4826V11.4848Z" fill="#DFDFDF"/>
<path d="M70.7406 9.97174C70.4456 9.83913 70.1308 9.73478 69.8074 9.64565C69.8205 9.63913 69.8358 9.63478 69.8489 9.62826C70.6729 9.22826 71.3286 8.65652 71.816 7.91304C72.3056 7.16957 72.5482 6.25652 72.5482 5.16957C72.5482 3.56957 71.9253 2.3087 70.6816 1.38478C69.4358 0.460869 67.6544 0 65.3376 0H56.3171V20H65.9124C68.4588 20 70.38 19.5283 71.6718 18.587C72.9635 17.6457 73.6105 16.3152 73.6105 14.6022C73.6105 13.4587 73.3526 12.5022 72.8346 11.7304C72.3165 10.9587 71.6171 10.3739 70.7385 9.97391L70.7406 9.97174ZM65.0818 2.31304C66.5375 2.31304 67.6675 2.58043 68.4719 3.11304C69.2762 3.64565 69.6784 4.44565 69.6784 5.51304C69.6784 6.58043 69.2762 7.38043 68.4719 7.91304C67.6675 8.44565 66.5375 8.71304 65.0818 8.71304H59.1935V2.31304H65.0818ZM69.4489 16.8848C68.6052 17.4174 67.39 17.6848 65.8009 17.6848H59.1935V11.0283H65.8009C67.39 11.0283 68.6052 11.2957 69.4489 11.8283C70.2904 12.3609 70.7122 13.2087 70.7122 14.3717C70.7122 15.5348 70.2904 16.3522 69.4489 16.887V16.8848Z" fill="#DFDFDF"/>
<path d="M81.6713 0H78.7993V20H81.6713V0Z" fill="#DFDFDF"/>
<path d="M91.0588 0H88.1868V20H101.946V17.513H91.0588V0Z" fill="#DFDFDF"/>
<path d="M109.758 0H106.886V20H109.758V0Z" fill="#DFDFDF"/>
<path d="M114.306 2.48478H121.2V20H124.043V2.48478H130.939V0H114.306V2.48478Z" fill="#DFDFDF"/>
<path d="M152.427 0H149.584L143.121 10.55L136.686 0H133.611L141.597 13.0348V20H144.441V13.0783L152.427 0Z" fill="#DFDFDF"/>
</svg>
