<svg width="24" height="24" viewBox="0 0 24 24" fill="none" xmlns="http://www.w3.org/2000/svg">
<path d="M0.0153282 16.1488C-0.00629294 15.947 -0.00389059 15.5554 0.0153282 15.3512C0.0994105 14.4768 0.649549 13.5278 1.30299 12.9585C1.42551 12.8528 1.77385 12.6774 1.79547 12.5621V1.82358C1.95162 -0.468258 4.97858 -0.622008 5.43743 1.55692C5.49509 5.23973 5.38458 8.94655 5.49269 12.6125C7.45541 13.8185 7.83498 16.5067 6.26864 18.2124C6.0164 18.4887 5.73052 18.6569 5.45665 18.8995C5.28368 20.1295 5.87946 22.073 4.86087 22.9907C3.72696 24.0165 1.9276 23.2958 1.79307 21.7967C1.70898 20.8694 1.86033 19.8388 1.78346 18.8995C1.75943 18.8226 1.15884 18.4046 1.04113 18.2845C0.55105 17.7872 0.0873964 16.8431 0.0129235 16.1488H0.0153282ZM3.23928 13.1627C1.56965 13.3501 0.599098 15.1806 1.2117 16.7133C2.24711 19.2983 6.33831 18.5872 6.15573 15.5626C6.05724 13.9362 4.84165 12.9825 3.23928 13.1627Z" fill="white"/>
<path d="M22.2365 9.45364L22.2221 21.7921C21.9578 23.9398 19.0101 24.0551 18.5849 21.9266L18.5729 9.5137C18.5465 9.38157 18.1236 9.13893 17.9891 9.01882C16.1441 7.38041 16.4997 4.44234 18.5657 3.1739C18.6233 2.261 18.3711 1.34811 19.0437 0.603383C20.1392 -0.607401 22.1043 0.125316 22.2293 1.72528C22.2653 2.19134 22.1908 2.70063 22.2341 3.1739C24.5716 4.60089 24.6052 8.05067 22.2341 9.45124L22.2365 9.45364ZM19.9182 3.78409C17.1675 4.15646 17.1579 8.62723 20.0936 8.88188C23.9902 9.22061 23.8436 3.25318 19.9182 3.78409Z" fill="white"/>
<path d="M13.8471 8.63886C16.2446 10.0058 16.1725 13.4868 13.8374 14.8706V21.7557C13.5924 24.0451 10.4309 24.0355 10.1811 21.7557V14.8706C7.82196 13.4628 7.81956 10.0178 10.1835 8.61483L10.1883 1.64321C10.5246 -0.581365 13.6068 -0.499685 13.8398 1.7297L13.8471 8.63886ZM11.721 9.17698C9.1961 9.44845 8.62434 12.9943 10.885 14.0634C13.5299 15.3126 15.9587 11.8196 14.0032 9.81841C13.381 9.18179 12.5714 9.08569 11.721 9.17698Z" fill="white"/>
</svg>
