<svg width="26" height="26" viewBox="0 0 26 26" fill="none" xmlns="http://www.w3.org/2000/svg">
<path d="M14.1553 25.432H11.4226C11.2326 25.3096 11.1962 25.1977 11.1468 24.9869C11.0609 24.6069 10.8292 22.2074 10.7147 22.1163C10.1994 21.9836 9.68152 21.8326 9.18703 21.6322C8.62488 21.4032 8.11218 21.0883 7.57345 20.8098L5.1791 22.5926C4.95788 22.7045 4.84597 22.6628 4.6638 22.5249C4.07041 22.0825 3.49525 21.2444 2.90447 20.7578C2.80817 20.6328 2.79776 20.4689 2.86543 20.3257L4.60914 17.9939L4.64558 17.8273C4.02096 16.8774 3.63839 15.8103 3.32608 14.7224L0.257668 14.2644C0.114528 14.1915 0.062483 14.09 0.0442652 13.9313C-0.0103884 13.4628 -0.0208015 11.8466 0.0494674 11.399C0.0885057 11.157 0.278495 11.0841 0.491904 11.045L3.35211 10.626C3.50306 10.0925 3.654 9.56419 3.86481 9.05149C4.09123 8.50235 4.39834 8.00006 4.6716 7.47434L2.88885 5.07999C2.77694 4.85878 2.81859 4.74686 2.95652 4.56469C3.16733 4.28361 4.36971 3.07603 4.64558 2.87823C4.83556 2.7429 4.98911 2.66482 5.19992 2.82098L7.60207 4.59592C8.57022 3.97391 9.65029 3.58092 10.7564 3.27642C10.9359 2.39416 10.9464 1.39998 11.1415 0.53073C11.2014 0.265269 11.2378 0.0804885 11.5501 0.0440528C12.1071 -0.021011 13.4162 -0.00799825 13.9861 0.0440528C14.2386 0.0674758 14.3271 0.124731 14.4025 0.371974L14.8502 3.29985C15.4748 3.46641 16.0942 3.63818 16.6876 3.89583C17.1404 4.09102 17.5542 4.36169 18.0019 4.56729L20.3962 2.78454C20.6174 2.67263 20.7293 2.71427 20.9115 2.85221C21.2525 3.10726 22.2727 4.14307 22.5511 4.49182C22.6943 4.66879 22.8296 4.84316 22.6761 5.06698L20.8803 7.50037C21.5049 8.46591 21.8901 9.55118 22.1998 10.6547L25.1042 11.0763C25.3515 11.1517 25.4087 11.2402 25.4322 11.4927C25.4842 12.0626 25.4946 13.3743 25.4322 13.9287C25.3957 14.241 25.2109 14.2774 24.9455 14.3373C24.0788 14.5299 23.0821 14.5455 22.1998 14.7224C21.8979 15.8025 21.5413 16.8748 20.9193 17.8169L20.9349 17.9756L22.7099 20.3257C22.775 20.4689 22.7672 20.6328 22.6709 20.7578C22.0801 21.2418 21.5049 22.0825 20.9115 22.5249C20.7684 22.6316 20.6903 22.6811 20.5003 22.6394L17.9993 20.8202C17.0103 21.3954 15.9693 21.8586 14.8528 22.1267C14.629 23.0272 14.642 24.0786 14.4338 24.9869C14.3843 25.1977 14.3479 25.3096 14.1579 25.432H14.1553ZM12.1591 6.17567C7.524 6.55304 4.81474 11.7555 7.04513 15.8285C9.44989 20.219 15.6986 20.3908 18.348 16.1382C21.229 11.5161 17.5438 5.73584 12.1591 6.17567Z" fill="white"/>
<path d="M12.1595 6.97187C16.8128 6.54765 20.0973 11.3832 17.807 15.5004C15.6365 19.4043 9.93169 19.4095 7.77157 15.5004C5.80404 11.9401 8.08908 7.34143 12.1569 6.97187H12.1595ZM9.67143 10.7404C9.24201 10.8835 9.30447 11.4873 9.75992 11.5263H15.7718C16.2741 11.4769 16.2741 10.7794 15.7718 10.73L9.67143 10.7404ZM9.07545 12.7287C8.64603 12.8719 8.70849 13.4756 9.16393 13.5147H16.3678C16.8701 13.4652 16.8701 12.7678 16.3678 12.7183L9.07545 12.7287ZM9.67143 14.7145C9.24201 14.8576 9.30447 15.4614 9.75992 15.5004H15.7718C16.2741 15.451 16.2741 14.7535 15.7718 14.7041L9.67143 14.7145Z" fill="white"/>
</svg>
