<svg width="20" height="22" viewBox="0 0 20 22" fill="none" xmlns="http://www.w3.org/2000/svg">
<path d="M16.5334 7.245L14.0901 4.46975L10.4868 0.377332C10.2608 0.125777 9.95688 0 9.65176 0C9.34663 0 9.04151 0.125777 8.81674 0.377332L2.74449 7.245C2.29379 7.74811 2.61173 8.17319 3.43394 8.17319H6.05546V17.2105C6.05546 17.4469 6.24879 17.6414 6.48637 17.6414H12.8102C13.0466 17.6414 13.2411 17.4481 13.2411 17.2105V8.17319H15.8719C16.6941 8.17319 17.0121 7.74927 16.5346 7.245H16.5334Z" fill="white"/>
<path d="M19.1694 19.4021H0.126942C0.0568338 19.4021 0 19.4589 0 19.529V21.7756C0 21.8457 0.0568338 21.9025 0.126942 21.9025H19.1694C19.2395 21.9025 19.2963 21.8457 19.2963 21.7756V19.529C19.2963 19.4589 19.2395 19.4021 19.1694 19.4021Z" fill="white"/>
</svg>
