<svg width="22" height="20" viewBox="0 0 22 20" fill="none" xmlns="http://www.w3.org/2000/svg">
<path d="M20.3559 11.7637H19.0033V18.4202C19.0033 18.9347 18.5865 19.3515 18.072 19.3515H14.2338C13.7193 19.3515 13.3025 18.9347 13.3025 18.4202V14.4201C13.3025 13.8968 12.879 13.4733 12.3557 13.4733H9.31121C8.78791 13.4733 8.3644 13.8968 8.3644 14.4201V18.4202C8.3644 18.9347 7.94753 19.3515 7.4331 19.3515H3.59484C3.08041 19.3515 2.66354 18.9347 2.66354 18.4202V11.7637H1.31095C0.133526 11.7637 -0.445207 10.3291 0.404044 9.51306L9.92764 0.364203C10.4332 -0.121401 11.2337 -0.121401 11.7392 0.364203L21.2628 9.51306C22.1121 10.3291 21.5356 11.7637 20.3559 11.7637Z" fill="white"/>
</svg>
