<svg width="20" height="23" viewBox="0 0 20 23" fill="none" xmlns="http://www.w3.org/2000/svg">
<path d="M9.58388 4.35107L6.8459 10.0122C6.82377 10.0576 6.81445 10.103 6.81445 10.1461C6.81445 10.3686 7.07416 10.5444 7.31058 10.4222L9.16462 9.46485C9.61183 9.23425 10.1417 9.23193 10.5901 9.45902L12.5175 10.4361C12.7539 10.5561 13.0113 10.3802 13.0113 10.1589C13.0113 10.1159 13.002 10.0704 12.9799 10.025L10.2361 4.35223C10.1045 4.07855 9.71548 4.07855 9.58272 4.35223L9.58388 4.35107Z" fill="white"/>
<path d="M8.25102 22.2953C6.37951 22.2033 1.56853 21.6117 0.321237 20.1408C-0.749034 18.8783 1.12132 17.97 2.09726 17.6043C2.66093 17.3935 3.29797 17.2165 3.88609 17.0849C4.13066 17.0301 5.50256 16.7471 5.62834 16.8193C6.3271 17.7254 7.11437 18.6128 7.9459 19.4001C8.27199 19.7087 9.28752 20.6707 9.67068 20.7231C10.3298 20.8139 10.7561 20.3213 11.2138 19.9218C12.2829 18.989 13.2332 17.9106 14.1195 16.8077C15.0477 16.8892 16.0166 17.0918 16.9099 17.3632C17.9091 17.666 20.569 18.6221 19.465 20.0697C18.2806 21.6233 13.2612 22.2068 11.3885 22.2941H11.0403C10.9995 22.2243 10.8225 22.2231 10.7794 22.2941C9.94553 22.2639 9.08255 22.3349 8.25336 22.2941L8.25102 22.2953Z" fill="white"/>
<path d="M11.0382 22.2953H10.7773C10.8216 22.2242 10.9975 22.2254 11.0382 22.2953Z" fill="white"/>
<path d="M9.33046 0.0176169C12.7765 -0.219962 15.9943 1.96716 16.9935 5.26299C18.4831 10.1718 14.4361 16.0076 10.9947 19.1835C10.7816 19.3803 10.2796 19.866 10.0595 19.9906C9.74505 20.1688 9.31532 19.6936 9.07657 19.4886C5.71785 16.6062 1.90843 11.1489 2.46162 6.5196C2.87738 3.03278 5.82849 0.25869 9.32929 0.0176169H9.33046ZM9.37471 2.10692C5.65613 2.41204 3.40262 6.45555 5.03307 9.81543C6.87664 13.6132 12.2618 13.8426 14.4547 10.2312C16.7455 6.45671 13.7443 1.74822 9.37471 2.10692Z" fill="white"/>
</svg>
