<svg width="26" height="26" viewBox="0 0 26 26" fill="none" xmlns="http://www.w3.org/2000/svg">
<path d="M25.4259 11.8812V13.4193C25.2568 15.3035 24.7857 17.1982 23.8462 18.8612C23.5365 19.4129 23.0706 20.329 22.4877 19.4077C22.2352 18.0024 21.5377 16.4434 21.3295 15.0589C21.2957 14.8272 21.3113 14.5514 21.5351 14.416C21.5664 14.3978 21.811 14.3119 21.8266 14.3119H23.1904C23.8852 9.84596 21.6809 5.63243 17.7979 3.4567C17.4673 3.27191 15.9631 2.63949 15.846 2.48074C15.6169 2.16323 15.9735 1.36945 16.1452 1.04153C16.4003 0.552248 16.6345 0.625119 17.1004 0.781272C21.6679 2.31157 25.1449 7.1289 25.4233 11.8838L25.4259 11.8812Z" fill="white"/>
<path d="M13.371 25.4274H11.8823C7.87961 25.1385 3.96277 22.8144 1.88854 19.3712C1.75841 19.1552 1.38885 18.5618 1.38104 18.351C1.37323 18.083 1.62047 17.8227 1.88333 17.8123C2.14619 17.8019 2.94517 18.0674 3.26008 18.148C4.37658 18.4343 5.48787 18.757 6.59135 19.085C6.79695 19.2073 6.85681 19.4623 6.80996 19.6861C6.7475 19.9959 6.22439 20.558 6.14631 20.8625C6.12549 20.9458 6.11248 20.964 6.17234 21.0395C6.26603 21.1618 6.90105 21.5678 7.07282 21.6771C11.1484 24.2536 16.2052 23.642 19.8331 20.6022C19.9997 20.5398 20.1819 20.5398 20.3458 20.6101C20.4916 20.6725 21.2151 21.5808 21.2489 21.7422C21.3582 22.2809 20.7258 22.6062 20.3328 22.8873C18.3549 24.3083 15.8044 25.279 13.371 25.4274Z" fill="white"/>
<path d="M14.8601 10.5901H18.6052C18.9487 10.5901 19.2428 11.1705 18.9669 11.449L11.5575 22.0492C11.266 22.4395 10.5919 22.2027 10.5919 21.729V14.8583H6.84685C6.50331 14.8583 6.20922 14.2779 6.48509 13.9995L13.8946 3.39926C14.186 3.00888 14.8601 3.24571 14.8601 3.71938V10.5901Z" fill="white"/>
<path d="M8.90496 2.8502C4.45459 4.54447 1.90409 8.81005 2.15654 13.5441C2.17736 13.9319 2.38296 14.7907 2.28406 15.1082C2.26324 15.1759 2.16695 15.2878 2.10969 15.332C1.94833 15.4544 1.07648 15.5923 0.839647 15.6027C0.451867 15.6209 0.269688 15.4179 0.194214 15.0588C-0.295065 12.7659 0.186407 9.63245 1.12072 7.49576C3.00497 3.19114 7.44753 0.224227 12.1529 0.0212279C12.7802 -0.00479766 14.1335 -0.147938 13.665 0.89048C12.5798 1.8326 11.6064 3.13388 10.5159 4.04217C10.3181 4.20613 10.162 4.34146 9.88091 4.279C9.53998 4.20093 9.07673 3.16251 8.90236 2.8502H8.90496Z" fill="white"/>
</svg>
