<svg width="24" height="23" viewBox="0 0 24 23" fill="none" xmlns="http://www.w3.org/2000/svg">
<path d="M23.3736 12.2496C23.412 12.6747 23.412 13.4701 23.3736 13.8952C23.2373 15.4103 22.5165 17.2003 21.6116 18.4162C18.3157 22.8463 11.7532 23.2889 7.96589 19.243H4.10873V17.8723H6.84787L6.1398 16.5016H1.36958V15.1308H5.70656C5.63319 14.6766 5.51323 14.2224 5.52372 13.7601H0V12.3894H5.52372C5.51323 11.927 5.63319 11.4716 5.70656 11.0186H2.73915V9.64787H6.1398C6.52994 8.7849 7.02489 7.98831 7.61185 7.24762C7.6037 7.15096 6.76985 6.47782 6.68483 6.31128C6.6627 6.26703 6.6627 6.2647 6.68483 6.22044C6.71278 6.16571 7.48374 5.3959 7.55362 5.34932C7.58157 5.33069 7.59904 5.29808 7.63981 5.30972C7.7947 5.41104 8.54354 6.27052 8.62972 6.24839C9.65457 5.3959 10.8471 4.75421 12.1422 4.41531C12.2062 4.37222 12.1864 4.35824 12.1689 4.29885C12.1375 4.18821 11.943 3.932 11.879 3.76546C11.384 2.47741 11.886 1.00535 13.0995 0.347346C15.3506 -0.873158 17.8685 1.33027 16.9811 3.73169C16.9345 3.85863 16.6399 4.3431 16.6806 4.39551C16.7144 4.4386 17.5587 4.67734 17.709 4.73674C18.622 5.09777 19.4594 5.63348 20.2187 6.24956C20.3049 6.27169 21.0537 5.41221 21.2086 5.31089C21.2494 5.29924 21.268 5.33185 21.2948 5.35048C21.3647 5.39823 22.1356 6.16687 22.1636 6.22161C22.1857 6.26586 22.1857 6.26819 22.1636 6.31245C22.0786 6.47899 21.2435 7.15329 21.2366 7.24879C22.0436 8.26665 22.6865 9.38351 23.0382 10.6448C23.164 11.0955 23.3293 11.8001 23.3713 12.2543L23.3736 12.2496ZM14.186 1.38268C12.4846 1.6517 12.813 4.35009 14.6274 4.11018C16.3813 3.87843 16.0471 1.08803 14.186 1.38268ZM18.3507 10.1929C19.1379 11.3901 19.4629 12.7411 19.1438 14.1619C18.94 15.0703 18.4683 15.8354 17.8534 16.5167C18.1375 16.7485 18.4543 17.2213 18.7385 17.4169C18.7862 17.4496 18.7874 17.474 18.8538 17.4402C18.9202 17.4065 19.1915 17.0687 19.2637 16.9791C22.1403 13.42 20.2548 7.97667 15.8037 7.00772C10.5385 5.86175 6.36107 11.4216 9.0152 16.1359C9.12468 16.3304 9.90146 17.4845 10.0598 17.4577C10.146 17.4426 10.8576 16.632 10.9985 16.5179C10.3778 15.8261 9.89331 15.0493 9.69882 14.1258C8.93135 10.4794 12.2633 7.38039 15.8398 8.43436C16.3767 8.59274 16.8204 8.86992 17.3002 9.1436L17.2559 9.25773L15.3355 11.1782C15.0874 11.1619 14.8627 11.0326 14.5855 11.0151C12.5451 10.8835 11.5494 13.4724 13.1763 14.7116C14.6263 15.8156 16.6713 14.6254 16.4733 12.8272C16.4559 12.6642 16.2753 12.2519 16.3161 12.1611L18.2342 10.2383L18.3483 10.1941L18.3507 10.1929ZM15.7955 17.2318H13.0564V18.6025H15.7955V17.2318Z" fill="white"/>
</svg>
