<svg width="90" height="84" viewBox="0 0 90 84" fill="none" xmlns="http://www.w3.org/2000/svg">
<path d="M89.3797 29.7409L89.3683 30.4462L89.3228 31.163L89.2546 31.8683L89.1635 32.5851L89.0497 33.2905L88.9018 33.9958L88.7198 34.7012L88.5264 35.3952L88.2988 36.1006L88.0486 36.7946L87.7755 37.4772L87.4683 38.1598L87.1385 38.8424L86.7857 39.5137L86.4103 40.1849L86.0008 40.8448L85.5798 41.5047L85.1247 42.1531L84.6469 42.7903L84.1463 43.416L83.6229 44.0417L83.0768 44.6561L82.4966 45.2704L81.905 45.862L81.2907 46.4537L80.6535 47.0225L79.9937 47.5914L79.3225 48.1488L78.6171 48.6949L77.9004 49.2296L77.1608 49.753L76.3985 50.2649L75.625 50.7542L74.8171 51.2434L74.0094 51.7212L73.1789 52.1763L72.3256 52.62L71.461 53.0523L70.5849 53.4732L69.6861 53.8714L68.776 54.2583L67.843 54.6337L66.9102 54.9978L65.9545 55.3391L64.9874 55.669L64.009 55.9762L63.0192 56.272L62.018 56.5564L61.0168 56.8181L59.9929 57.0684L58.9577 57.2959L57.9223 57.5121L56.887 57.7169L55.829 57.8875L54.7709 58.0582L53.7129 58.2061L52.6434 58.3312L51.5626 58.445L50.4817 58.5474L49.401 58.627L48.3202 58.6839L47.2393 58.7294L46.1472 58.7522L45.0663 58.7635L43.9741 58.7522L42.8933 58.7294L41.8011 58.6839L40.7203 58.627L39.6395 58.5474L38.5587 58.445L37.4893 58.3312L36.4198 58.2061L35.3504 58.0582L34.2923 57.8875L33.2457 57.7169L32.1989 57.5121L31.1636 57.2959L30.1283 57.0684L29.1158 56.8181L28.1033 56.5564L27.1021 56.272L26.1123 55.9762L25.1339 55.669L24.1667 55.3391L23.2225 54.9978L22.2782 54.6337L21.3566 54.2583L20.4466 53.8714L19.5477 53.4732L18.6603 53.0523L17.7956 52.62L16.9538 52.1763L16.1119 51.7212L15.3041 51.2434L14.5077 50.7542L13.7227 50.2649L12.9718 49.753L12.2323 49.2296L11.5041 48.6949L10.8102 48.1488L10.1276 47.5914L9.46774 47.0225L8.83057 46.4537L8.2163 45.862L7.62468 45.2704L7.05583 44.6561L6.50975 44.0417L5.97493 43.416L5.47441 42.7903L4.99653 42.1531L4.55281 41.5047L4.12047 40.8448L3.72231 40.1849L3.33553 39.5137L2.98278 38.8424L2.65294 38.1598L2.35712 37.4772L2.0727 36.7946L1.82244 36.1006L1.59482 35.3952L1.40136 34.7012L1.23081 33.9958L1.08291 33.2905L0.957777 32.5851L0.866672 31.8683L0.798482 31.163L0.764318 30.4462L0.75293 29.7409L0.764318 29.0241L0.798482 28.3187L0.866672 27.602L0.957777 26.8966L1.08291 26.1799L1.23081 25.4745L1.40136 24.7805L1.59482 24.0751L1.82244 23.3811L2.0727 22.6871L2.35712 21.9931L2.65294 21.3105L2.98278 20.6393L3.33553 19.9566L3.72231 19.2968L4.12047 18.6255L4.55281 17.977L4.99653 17.3286L5.47441 16.6914L5.97493 16.0543L6.50975 15.4286L7.05583 14.8142L7.62468 14.2112L8.2163 13.6083L8.83057 13.0281L9.46774 12.4478L10.1276 11.879L10.8102 11.3215L11.5041 10.7754L12.2323 10.2407L12.9718 9.7287L13.7227 9.21675L14.5077 8.71616L15.3041 8.22696L16.1119 7.7605L16.9538 7.30543L17.7956 6.86171L18.6603 6.42938L19.5477 6.00843L20.4466 5.61023L21.3566 5.21207L22.2782 4.84799L23.2225 4.48392L24.1667 4.14263L25.1339 3.81268L26.1123 3.50552L27.1021 3.19832L28.1033 2.92528L29.1158 2.6636L30.1283 2.4133L31.1636 2.17439L32.1989 1.95823L33.2457 1.7648L34.2923 1.5828L35.3504 1.42351L36.4198 1.2756L37.4893 1.13908L38.5587 1.02531L39.6395 0.934305L40.7203 0.854658L41.8011 0.786399L42.8933 0.752269L43.9741 0.71814H45.0663H46.1472L47.2393 0.752269L48.3202 0.786399L49.401 0.854658L50.4817 0.934305L51.5626 1.02531L52.6434 1.13908L53.7129 1.2756L54.7709 1.42351L55.829 1.5828L56.887 1.7648L57.9223 1.95823L58.9577 2.17439L59.9929 2.4133L61.0168 2.6636L62.018 2.92528L63.0192 3.19832L64.009 3.50552L64.9874 3.81268L65.9545 4.14263L66.9102 4.48392L67.843 4.84799L68.776 5.21207L69.6861 5.61023L70.5849 6.00843L71.461 6.42938L72.3256 6.86171L73.1789 7.30543L74.0094 7.7605L74.8171 8.22696L75.625 8.71616L76.3985 9.21675L77.1608 9.7287L77.9004 10.2407L78.6171 10.7754L79.3225 11.3215L79.9937 11.879L80.6535 12.4478L81.2907 13.0281L81.905 13.6083L82.4966 14.2112L83.0768 14.8142L83.6229 15.4286L84.1463 16.0543L84.6469 16.6914L85.1247 17.3286L85.5798 17.977L86.0008 18.6255L86.4103 19.2968L86.7857 19.9566L87.1385 20.6393L87.4683 21.3105L87.7755 21.9931L88.0486 22.6871L88.2988 23.3811L88.5264 24.0751L88.7198 24.7805L88.9018 25.4745L89.0497 26.1799L89.1635 26.8966L89.2546 27.602L89.3228 28.3187L89.3683 29.0241L89.3797 29.7409Z" fill="white"/>
<path d="M45 53V84" stroke="white" stroke-width="1.19" stroke-miterlimit="10"/>
</svg>
