<svg width="90" height="90" viewBox="0 0 90 90" fill="none" xmlns="http://www.w3.org/2000/svg">
<path d="M89.3553 45.2532L89.3439 46.3454L89.2984 47.4262L89.2415 48.5184L89.1391 49.5992L89.0253 50.68L88.8774 51.7609L88.7068 52.8303L88.502 53.8997L88.2858 54.9578L88.0241 56.0158L87.7511 57.0739L87.4439 58.1206L87.1254 59.1559L86.7613 60.1798L86.3859 61.2037L85.9877 62.2163L85.5554 63.2061L85.1003 64.1959L84.6224 65.1743L84.1218 66.1413L83.5985 67.0971L83.0524 68.0299L82.4836 68.9629L81.892 69.873L81.2776 70.7718L80.6405 71.6479L79.9806 72.5125L79.298 73.3658L78.5926 74.1963L77.8759 75.0154L77.1364 75.8118L76.3741 76.5855L75.6005 77.3477L74.8041 78.0872L73.9849 78.8039L73.1544 79.5093L72.3012 80.1919L71.4365 80.8518L70.5605 81.4889L69.6617 82.1033L68.7515 82.6949L67.83 83.2637L66.8857 83.8098L65.93 84.3332L64.963 84.8338L63.9846 85.3116L62.9948 85.7667L62.005 86.199L60.9924 86.5972L59.9685 86.9726L58.9446 87.3367L57.9092 87.6553L56.8626 87.9624L55.8045 88.2355L54.7464 88.4858L53.6884 88.7133L52.619 88.9181L51.5495 89.0888L50.4687 89.2367L49.3879 89.3504L48.3071 89.4528L47.2149 89.5097L46.1341 89.5552L45.0419 89.5666L43.9497 89.5552L42.8689 89.5097L41.7767 89.4528L40.6959 89.3504L39.6151 89.2367L38.5342 89.0888L37.4648 88.9181L36.3954 88.7133L35.3373 88.4858L34.2793 88.2355L33.2212 87.9624L32.1745 87.6553L31.1392 87.3367L30.1153 86.9726L29.0913 86.5972L28.0788 86.199L27.089 85.7667L26.0992 85.3116L25.1208 84.8338L24.1537 84.3332L23.1981 83.8098L22.2652 83.2637L21.3322 82.6949L20.4221 82.1033L19.5233 81.4889L18.6473 80.8518L17.7826 80.1919L16.9293 79.5093L16.0988 78.8039L15.2797 78.0872L14.4833 77.3477L13.7097 76.5855L12.9474 75.8118L12.2079 75.0154L11.4911 74.1963L10.7858 73.3658L10.1031 72.5125L9.4433 71.6479L8.80619 70.7718L8.19182 69.873L7.60019 68.9629L7.03134 68.0299L6.48527 67.0971L5.96194 66.1413L5.46135 65.1743L4.9835 64.1959L4.52843 63.2061L4.0961 62.2163L3.69789 61.2037L3.32247 60.1798L2.9584 59.1559L2.63984 58.1206L2.33268 57.0739L2.0596 56.0158L1.80931 54.9578L1.58179 53.8997L1.37701 52.8303L1.20633 51.7609L1.05842 50.68L0.944681 49.5992L0.842292 48.5184L0.785387 47.4262L0.739869 46.3454L0.728516 45.2532L0.739869 44.161L0.785387 43.0802L0.842292 41.988L0.944681 40.9072L1.05842 39.8264L1.20633 38.7456L1.37701 37.6761L1.58179 36.6067L1.80931 35.5486L2.0596 34.4906L2.33268 33.4325L2.63984 32.3858L2.9584 31.3505L3.32247 30.3266L3.69789 29.3027L4.0961 28.2901L4.52843 27.3003L4.9835 26.3105L5.46135 25.3321L5.96194 24.365L6.48527 23.4094L7.03134 22.4651L7.60019 21.5436L8.19182 20.6334L8.80619 19.7346L9.4433 18.8586L10.1031 17.994L10.7858 17.1407L11.4911 16.3101L12.2079 15.491L12.9474 14.6946L13.7097 13.921L14.4833 13.1587L15.2797 12.4192L16.0988 11.7025L16.9293 10.9971L17.7826 10.3145L18.6473 9.6546L19.5233 9.01749L20.4221 8.40312L21.3322 7.81153L22.2652 7.24268L23.1981 6.69657L24.1537 6.17324L25.1208 5.67265L26.0992 5.19484L27.089 4.73973L28.0788 4.30743L29.0913 3.90923L30.1153 3.53377L31.1392 3.16973L32.1745 2.85118L33.2212 2.54398L34.2793 2.27094L35.3373 2.00926L36.3954 1.79309L37.4648 1.58832L38.5342 1.41767L39.6151 1.26976L40.6959 1.15598L41.7767 1.0536L42.8689 0.996725L43.9497 0.951207L45.0419 0.939819L46.1341 0.951207L47.2149 0.996725L48.3071 1.0536L49.3879 1.15598L50.4687 1.26976L51.5495 1.41767L52.619 1.58832L53.6884 1.79309L54.7464 2.00926L55.8045 2.27094L56.8626 2.54398L57.9092 2.85118L58.9446 3.16973L59.9685 3.53377L60.9924 3.90923L62.005 4.30743L62.9948 4.73973L63.9846 5.19484L64.963 5.67265L65.93 6.17324L66.8857 6.69657L67.83 7.24268L68.7515 7.81153L69.6617 8.40312L70.5605 9.01749L71.4365 9.6546L72.3012 10.3145L73.1544 10.9971L73.9849 11.7025L74.8041 12.4192L75.6005 13.1587L76.3741 13.921L77.1364 14.6946L77.8759 15.491L78.5926 16.3101L79.298 17.1407L79.9806 17.994L80.6405 18.8586L81.2776 19.7346L81.892 20.6334L82.4836 21.5436L83.0524 22.4651L83.5985 23.4094L84.1218 24.365L84.6224 25.3321L85.1003 26.3105L85.5554 27.3003L85.9877 28.2901L86.3859 29.3027L86.7613 30.3266L87.1254 31.3505L87.4439 32.3858L87.7511 33.4325L88.0241 34.4906L88.2858 35.5486L88.502 36.6067L88.7068 37.6761L88.8774 38.7456L89.0253 39.8264L89.1391 40.9072L89.2415 41.988L89.2984 43.0802L89.3439 44.161L89.3553 45.2532Z" fill="white"/>
</svg>
