<svg width="90" height="64" viewBox="0 0 90 64" fill="none" xmlns="http://www.w3.org/2000/svg">
<path d="M89.068 1.01467L89.0452 1.03741L89.0111 1.06018L88.9427 1.08292L88.8516 1.09431L88.7266 1.11705L88.5786 1.13983L88.4081 1.16257L88.2147 1.17396L87.987 1.1967L87.7367 1.21944L87.4523 1.23083L87.1565 1.25357L86.8265 1.27635L86.474 1.2877L86.0985 1.31048L85.6888 1.33322L85.2566 1.34461L84.813 1.36735L84.335 1.37874L83.8345 1.40148L83.3112 1.41287L82.7537 1.43561L82.1849 1.447L81.5932 1.46974L80.9788 1.48113L80.3417 1.50387L79.682 1.51526L78.9993 1.52664L78.3051 1.54938L77.5885 1.56077L76.8377 1.57213L76.0867 1.5949L75.3017 1.60626L74.5054 1.61764L73.6977 1.62903L72.8558 1.64039L72.0139 1.65177L71.1492 1.66316L70.2618 1.67452L69.363 1.6859L68.4528 1.69729L67.5312 1.70868L66.5871 1.72003L65.6427 1.73142L64.6755 1.74281L63.6973 1.75416H62.7073L61.7063 1.76555L60.6936 1.77694H59.6811L58.6459 1.78829H57.6105L56.5639 1.79968H55.5173L54.459 1.81107H53.3896H52.3203L51.2509 1.82242H50.1699H49.0891H48.0083H46.9276H45.8354H44.743H43.6623H42.5701H41.4893H40.4086H39.3276H38.2468L37.1774 1.81107H36.1081H35.0387L33.9804 1.79968H32.9338L31.8872 1.78829H30.8518L29.8165 1.77694H28.8038L27.7914 1.76555L26.7904 1.75416H25.8004L24.8219 1.74281L23.855 1.73142L22.9106 1.72003L21.9665 1.70868L21.0449 1.69729L20.1233 1.6859L19.2359 1.67452L18.3484 1.66316L17.4838 1.65177L16.6305 1.64039L15.8 1.62903L14.9923 1.61764L14.196 1.60626L13.411 1.5949L12.6486 1.57213L11.9092 1.56077L11.1923 1.54938L10.487 1.52664L9.81571 1.51526L9.15603 1.50387L8.51885 1.48113L7.90445 1.46974L7.31282 1.447L6.73258 1.43561L6.18651 1.41287L5.66321 1.40148L5.16269 1.37874L4.68467 1.36735L4.2297 1.34461L3.80862 1.33322L3.3992 1.31048L3.02367 1.2877L2.67092 1.27635L2.34122 1.25357L2.03402 1.23083L1.76098 1.21944L1.51045 1.1967L1.28296 1.17396L1.08964 1.16257L0.90771 1.13983L0.771053 1.11705L0.645784 1.09431L0.554957 1.08292L0.486628 1.06018L0.441076 1.03741L0.429688 1.01467L0.441076 1.00328L0.486628 0.980535L0.554957 0.957794L0.645784 0.946406L0.771053 0.923664L0.90771 0.900888L1.08964 0.878147L1.28296 0.866759L1.51045 0.844017L1.76098 0.821241L2.03402 0.809887L2.34122 0.787111L2.67092 0.76437L3.02367 0.752982L3.3992 0.73024L3.80862 0.707499L4.2297 0.696111L4.68467 0.673369L5.16269 0.661981L5.66321 0.63924L6.18651 0.627851L6.73258 0.60511L7.31282 0.593722L7.90445 0.57098L8.51885 0.559592L9.15603 0.536816L9.81571 0.525463L10.487 0.502687L11.1923 0.491333L11.9092 0.479945L12.6486 0.468557L13.411 0.445815L14.196 0.434427L14.9923 0.423074L15.8 0.411686L16.6305 0.400298L17.4838 0.388944L18.3484 0.377556L19.2359 0.366168L20.1233 0.354815L21.0449 0.343427L21.9665 0.332039L22.9106 0.320685L23.855 0.309297L24.8219 0.297909L25.8004 0.286556H26.7904L27.7914 0.275168L28.8038 0.263779H29.8165L30.8518 0.252391H31.8872L32.9338 0.241038H33.9804L35.0387 0.22965H36.1081H37.1774L38.2468 0.218262H39.3276H40.4086H41.4893H42.5701H43.6623H44.743H45.8354H46.9276H48.0083H49.0891H50.1699H51.2509L52.3203 0.22965H53.3896H54.459L55.5173 0.241038H56.5639L57.6105 0.252391H58.6459L59.6811 0.263779H60.6936L61.7063 0.275168L62.7073 0.286556H63.6973L64.6755 0.297909L65.6427 0.309297L66.5871 0.320685L67.5312 0.332039L68.4528 0.343427L69.363 0.354815L70.2618 0.366168L71.1492 0.377556L72.0139 0.388944L72.8558 0.400298L73.6977 0.411686L74.5054 0.423074L75.3017 0.434427L76.0867 0.445815L76.8377 0.468557L77.5885 0.479945L78.3051 0.491333L78.9993 0.502687L79.682 0.525463L80.3417 0.536816L80.9788 0.559592L81.5932 0.57098L82.1849 0.593722L82.7537 0.60511L83.3112 0.627851L83.8345 0.63924L84.335 0.661981L84.813 0.673369L85.2566 0.696111L85.6888 0.707499L86.0985 0.73024L86.474 0.752982L86.8265 0.76437L87.1565 0.787111L87.4523 0.809887L87.7367 0.821241L87.987 0.844017L88.2147 0.866759L88.4081 0.878147L88.5786 0.900888L88.7266 0.923664L88.8516 0.946406L88.9427 0.957794L89.0111 0.980535L89.0452 1.00328L89.068 1.01467Z" fill="white"/>
<path d="M45 0V64" stroke="white" stroke-width="1.71" stroke-miterlimit="10"/>
</svg>
