<svg width="90" height="67" viewBox="0 0 90 67" fill="none" xmlns="http://www.w3.org/2000/svg">
<path d="M89.3343 13.0822L89.3116 13.3893L89.2777 13.7079L89.2093 14.0264L89.1182 14.345L88.9932 14.6522L88.8452 14.9708L88.6747 15.2779L88.4811 15.5965L88.2536 15.9037L88.0033 16.2108L87.7189 16.518L87.4231 16.8252L87.0931 17.121L86.7403 17.4282L86.3651 17.724L85.9554 18.0084L85.5232 18.3042L85.0793 18.5886L84.6016 18.8731L84.1011 19.1575L83.5778 19.4305L83.0203 19.7036L82.4515 19.9766L81.8598 20.2497L81.2454 20.5L80.6083 20.7616L79.9483 21.0119L79.2659 21.2622L78.5717 21.5011L77.8551 21.74L77.1041 21.9676L76.3533 22.1951L75.5683 22.4227L74.772 22.6388L73.964 22.8436L73.1221 23.0484L72.2802 23.2418L71.4156 23.4352L70.5281 23.6286L69.6296 23.7993L68.7194 23.9813L67.7978 24.1406L66.8534 24.2999L65.9093 24.4592L64.9421 24.5957L63.9639 24.7436L62.9739 24.8687L61.9729 24.9939L60.9602 25.1077L59.9478 25.2214L58.9123 25.3238L57.8771 25.4262L56.8305 25.5059L55.7836 25.5855L54.7256 25.6651L53.6562 25.7334L52.5869 25.7903L51.5172 25.8358L50.4365 25.8813L49.3557 25.9154L48.2749 25.9382L47.1939 25.9609L46.1018 25.9723H45.0096H43.9289L42.8367 25.9609L41.756 25.9382L40.6749 25.9154L39.5942 25.8813L38.5134 25.8358L37.4326 25.7903L36.3747 25.7334L35.305 25.6651L34.247 25.5855L33.2004 25.5059L32.1536 25.4262L31.1184 25.3238L30.0831 25.2214L29.0704 25.1077L28.058 24.9939L27.0567 24.8687L26.067 24.7436L25.0885 24.5957L24.1216 24.4592L23.1772 24.2999L22.2329 24.1406L21.3113 23.9813L20.3899 23.7993L19.5025 23.6286L18.6151 23.4352L17.7504 23.2418L16.8971 23.0484L16.0666 22.8436L15.2589 22.6388L14.4626 22.4227L13.6773 22.1951L12.9152 21.9676L12.1758 21.74L11.4589 21.5011L10.7536 21.2622L10.0823 21.0119L9.42235 20.7616L8.78545 20.5L8.17105 20.2497L7.57942 19.9766L6.99919 19.7036L6.45311 19.4305L5.92982 19.1575L5.42902 18.8731L4.95127 18.5886L4.4963 18.3042L4.07522 18.0084L3.66581 17.724L3.29028 17.4282L2.93752 17.121L2.60755 16.8252L2.30034 16.518L2.02731 16.2108L1.77705 15.9037L1.54956 15.5965L1.35624 15.2779L1.17403 14.9708L1.03765 14.6522L0.912385 14.345L0.821558 14.0264L0.75323 13.7079L0.707677 13.3893L0.696289 13.0822L0.707677 12.7636L0.75323 12.4451L0.821558 12.1265L0.912385 11.808L1.03765 11.5007L1.17403 11.1822L1.35624 10.875L1.54956 10.5565L1.77705 10.2493L2.02731 9.94211L2.30034 9.63494L2.60755 9.32778L2.93752 9.03196L3.29028 8.73615L3.66581 8.44037L4.07522 8.14456L4.4963 7.84874L4.95127 7.56432L5.42902 7.2799L5.92982 6.99547L6.45311 6.72243L6.99919 6.4494L7.57942 6.17633L8.17105 5.91468L8.78545 5.65299L9.42235 5.39131L10.0823 5.14102L10.7536 4.89072L11.4589 4.65181L12.1758 4.41291L12.9152 4.18535L13.6773 3.95783L14.4626 3.73028L15.2589 3.51411L16.0666 3.30934L16.8971 3.10456L17.7504 2.91113L18.6151 2.71775L19.5025 2.53571L20.3899 2.35367L21.3113 2.18303L22.2329 2.01234L23.1772 1.85308L24.1216 1.70518L25.0885 1.55727L26.067 1.42075L27.0567 1.28423L28.058 1.15907L29.0704 1.04533L30.0831 0.93155L31.1184 0.829161L32.1536 0.738126L33.2004 0.647125L34.247 0.567478L35.305 0.48783L36.3747 0.430959L37.4326 0.3627L38.5134 0.317182L39.5942 0.271665L40.6749 0.237535L41.756 0.214794L42.8367 0.192052L43.9289 0.180664H45.0096H46.1018L47.1939 0.192052L48.2749 0.214794L49.3557 0.237535L50.4365 0.271665L51.5172 0.317182L52.5869 0.3627L53.6562 0.430959L54.7256 0.48783L55.7836 0.567478L56.8305 0.647125L57.8771 0.738126L58.9123 0.829161L59.9478 0.93155L60.9602 1.04533L61.9729 1.15907L62.9739 1.28423L63.9639 1.42075L64.9421 1.55727L65.9093 1.70518L66.8534 1.85308L67.7978 2.01234L68.7194 2.18303L69.6296 2.35367L70.5281 2.53571L71.4156 2.71775L72.2802 2.91113L73.1221 3.10456L73.964 3.30934L74.772 3.51411L75.5683 3.73028L76.3533 3.95783L77.1041 4.18535L77.8551 4.41291L78.5717 4.65181L79.2659 4.89072L79.9483 5.14102L80.6083 5.39131L81.2454 5.65299L81.8598 5.91468L82.4515 6.17633L83.0203 6.4494L83.5778 6.72243L84.1011 6.99547L84.6016 7.2799L85.0793 7.56432L85.5232 7.84874L85.9554 8.14456L86.3651 8.44037L86.7403 8.73615L87.0931 9.03196L87.4231 9.32778L87.7189 9.63494L88.0033 9.94211L88.2536 10.2493L88.4811 10.5565L88.6747 10.875L88.8452 11.1822L88.9932 11.5007L89.1182 11.808L89.2093 12.1265L89.2777 12.4451L89.3116 12.7636L89.3343 13.0822Z" fill="white"/>
<path d="M45 16V67" stroke="white" stroke-width="1.54" stroke-miterlimit="10"/>
</svg>
