<svg width="849" height="696" viewBox="0 0 849 696" fill="none" xmlns="http://www.w3.org/2000/svg">
<path d="M848.66 345.671V344.402L848.605 343.133L848.55 341.864L848.476 340.595L848.384 339.326L848.274 338.057L848.145 336.806L847.979 335.555L847.796 334.323L847.593 333.109L847.354 331.914L847.097 330.737L846.821 329.559L846.526 328.401L846.214 327.26L845.883 326.12L845.533 324.998L845.165 323.876L844.779 322.754L844.375 321.632L843.952 320.492L843.492 319.352L843.437 319.223L843.381 319.094L843.326 318.965L843.271 318.837L843.216 318.689L843.161 318.542L843.106 318.395L843.05 318.248L842.995 318.101L842.94 317.954L842.885 317.807L842.83 317.659L842.774 317.512L842.719 317.365L842.646 317.218L842.572 317.071L842.499 316.924L842.425 316.777L842.351 316.629L842.278 316.482L842.204 316.335L842.131 316.188L842.057 316.041L841.984 315.894L841.91 315.747L841.836 315.599L841.763 315.452L841.689 315.305L841.616 315.158L841.542 315.011L841.469 314.845L841.395 314.68L841.321 314.514L841.248 314.349L841.174 314.183L841.101 314.018L841.027 313.852L840.954 313.687L840.88 313.521L840.806 313.355L840.733 313.19L840.659 313.024L840.586 312.859L840.512 312.693L840.439 312.528L840.365 312.362L840.273 312.197L840.181 312.031L840.016 311.7L839.85 311.369L839.685 311.038L839.519 310.707L839.335 310.376L839.151 310.045L838.967 309.714L838.783 309.383L838.599 309.052L838.415 308.721L838.232 308.389L838.048 308.058L837.864 307.727L837.68 307.378L837.496 307.028L837.312 306.679L837.128 306.329L836.944 305.98L836.742 305.631L836.539 305.281L836.337 304.932L836.135 304.582L835.932 304.233L835.73 303.902L835.528 303.571L835.326 303.24L835.123 302.908L834.921 302.577L834.719 302.246L834.516 301.915L834.314 301.584L834.112 301.253L833.909 300.922L833.707 300.591L833.505 300.26L833.302 299.929L833.1 299.598L832.898 299.267L832.695 298.936L832.493 298.605L832.291 298.274L832.089 297.942L831.886 297.611L831.684 297.28L831.482 296.968L831.279 296.655L831.059 296.342L830.838 296.03L830.617 295.717L830.396 295.404L830.176 295.092L829.955 294.779L829.734 294.466L829.514 294.154L829.293 293.841L829.072 293.528L828.851 293.234L828.631 292.94L828.41 292.645L828.189 292.351L827.969 292.057L827.748 291.763L827.527 291.468L827.306 291.174L827.086 290.88L826.865 290.604L826.644 290.328L826.424 290.052L826.203 289.776L825.982 289.5L825.762 289.224L825.541 288.948L825.32 288.673L825.099 288.397L824.879 288.139L824.658 287.882L824.437 287.624L824.217 287.367L823.996 287.109L823.775 286.852L823.554 286.594L823.444 286.465L823.334 286.337L823.223 286.208L823.113 286.079L823.003 285.95L822.892 285.822L822.782 285.693L822.672 285.564L822.561 285.435L822.451 285.307L822.341 285.178L822.23 285.068L822.12 284.957L822.009 284.847L821.899 284.737L821.789 284.626L821.678 284.516L821.568 284.405L821.458 284.295L821.347 284.185L821.237 284.074L821.127 283.964L821.016 283.854L820.906 283.743L820.796 283.633L820.685 283.523L820.575 283.412L820.465 283.302L820.354 283.192L820.244 283.081L820.133 282.971L820.023 282.861L819.913 282.75L819.802 282.64L819.692 282.529L819.582 282.419L819.471 282.309L819.361 282.198L819.251 282.088L819.14 281.978L819.03 281.867L818.92 281.757L818.809 281.665L818.699 281.573L818.589 281.481L818.478 281.389L818.368 281.297L818.257 281.205L818.147 281.113L818.037 281.021L817.926 280.929L817.816 280.837L817.706 280.745L817.595 280.653L817.485 280.561L817.375 280.469L817.264 280.377L817.154 280.286L817.044 280.194L816.933 280.102L816.823 280.01L816.712 279.918L816.602 279.826L816.492 279.734L816.381 279.642L816.271 279.55L816.161 279.458L816.05 279.366L815.94 279.274L815.83 279.182L815.719 279.09L815.609 278.998L815.499 278.924L815.388 278.851L815.278 278.777L815.168 278.704L815.057 278.63L814.947 278.557L814.836 278.483L814.726 278.409L814.524 278.262L814.321 278.115L814.119 277.968L813.917 277.821L813.714 277.674L813.512 277.527L813.31 277.379L813.108 277.232L812.905 277.085L812.703 276.956L812.501 276.828L812.298 276.699L812.096 276.57L811.894 276.441L811.691 276.313L811.489 276.184L811.287 276.055L811.066 275.945L810.845 275.835L810.625 275.724L810.404 275.614L810.183 275.503L809.963 275.393L809.742 275.283L809.521 275.172L809.3 275.062L809.08 274.97L808.859 274.878L808.638 274.786L808.418 274.694L808.197 274.602L807.976 274.51L807.755 274.418L807.535 274.326L807.314 274.234L807.093 274.142L806.873 274.069L806.652 273.995L806.431 273.922L806.21 273.848L805.99 273.775L805.769 273.701L805.548 273.627L805.328 273.554L805.107 273.48L804.886 273.407L804.666 273.333L804.445 273.278L804.206 273.223L803.967 273.168L803.727 273.112L803.488 273.057L803.249 273.002L803.01 272.947L802.771 272.892L802.532 272.837L802.293 272.781L802.054 272.726L801.815 272.671L801.576 272.616L801.336 272.579L801.097 272.542L800.858 272.505L800.619 272.469L800.362 272.432L800.104 272.395L799.847 272.358L799.589 272.322L799.332 272.285L799.074 272.248L798.817 272.211L798.559 272.174L798.302 272.138L798.044 272.101L797.787 272.064H797.529L797.253 272.009H796.977L796.702 271.954H796.426L796.15 271.898H795.874L795.598 271.862H795.322L795.046 271.825H794.77L794.476 271.788H794.182L793.888 271.751H793.593L793.299 271.715H793.005L792.858 271.696H792.71H792.563H792.416H792.269H792.122H791.975H791.828H791.68H791.533H791.386H791.239H791.092H790.926H790.761H790.595H790.43H790.264H790.099H789.933H789.768H789.602H789.437H789.271H789.106H788.94H788.774H788.609H788.443H788.278H788.112H787.947H787.781H787.616H787.45H787.285H787.119H519.143L515.887 271.659L512.668 271.531L509.523 271.292L506.47 270.924L503.527 270.39L500.713 269.71L498.047 268.845L495.545 267.815L493.209 266.601L491.057 265.204L489.089 263.64L487.324 261.893L485.76 259.98L484.399 257.902L483.241 255.658L482.284 253.267L481.512 250.729L480.905 248.062L480.463 245.266L480.169 242.36L479.985 239.344L479.893 236.235V233.035C479.875 154.866 472.904 74.2695 451.275 26.5406C435.255 -8.84686 412.798 -8.84686 396.778 26.5406C375.167 74.2695 368.178 154.866 368.178 233.035V236.235L368.068 239.344L367.884 242.36L367.59 245.266L367.148 248.062L366.541 250.729L365.769 253.267L364.812 255.658L363.654 257.902L362.293 259.98L360.729 261.893L358.964 263.64L356.996 265.204L354.844 266.601L352.508 267.815L350.006 268.845L347.34 269.71L344.526 270.39L341.583 270.924L338.53 271.292L335.385 271.531L332.166 271.659L328.91 271.696H61.3753H61.2098H60.8787H60.7132H60.5476H60.3821H60.2166H60.051H59.8855H59.72H59.5544H59.3889H59.2234H59.0578H58.8923H58.7268H58.5613H58.3957H58.2302H58.0647H57.8991H57.7336H57.5681H57.4209H57.2738H57.1267H56.9795H56.8324H56.6852H56.5381H56.391H56.2438H56.0967H55.9495H55.8024H55.6553H55.361L55.0667 271.715H54.7724L54.4782 271.751H54.1839L53.8896 271.788H53.6137L53.3378 271.825H53.0619L52.7861 271.862H52.5102L52.2343 271.898H51.9584L51.6825 271.954H51.4066L51.1307 272.009H50.8733L50.6158 272.064L50.3583 272.101L50.1008 272.138L49.8433 272.174L49.5858 272.211L49.3283 272.248L49.0708 272.285L48.8133 272.322L48.5558 272.358L48.2983 272.395L48.0408 272.432L47.8017 272.469L47.5626 272.505L47.3235 272.542L47.0844 272.579L46.8453 272.634L46.6062 272.689L46.3671 272.745L46.128 272.8L45.8889 272.855L45.6498 272.91L45.4107 272.965L45.1716 273.02L44.9325 273.076L44.6934 273.131L44.4543 273.186L44.2152 273.241L43.9945 273.296L43.7738 273.37L43.5531 273.443L43.3324 273.517L43.1117 273.591L42.891 273.664L42.6703 273.738L42.4496 273.811L42.2288 273.885L42.0081 273.958L41.7874 274.032L41.5667 274.106L41.346 274.198L41.1253 274.29L40.9046 274.382L40.6839 274.473L40.4632 274.565L40.2425 274.657L40.0218 274.749L39.8011 274.841L39.5803 274.933L39.3596 275.025L39.1389 275.136L38.9182 275.246L38.6975 275.356L38.4768 275.467L38.2561 275.577L38.0354 275.687L37.8147 275.798L37.594 275.908L37.3733 276.018L37.1709 276.147L36.9686 276.276L36.7663 276.405L36.564 276.533L36.3617 276.662L36.1594 276.791L35.9571 276.92L35.7547 277.048L35.5524 277.196L35.3501 277.343L35.1478 277.49L34.9455 277.637L34.7432 277.784L34.5408 277.931L34.3385 278.078L34.1362 278.226L33.9339 278.373L33.8235 278.446L33.7132 278.52L33.6028 278.593L33.4925 278.667L33.3821 278.741L33.2718 278.814L33.1614 278.888L33.0511 278.961L32.9407 279.053L32.8303 279.145L32.72 279.237L32.6096 279.329L32.4993 279.421L32.3889 279.513L32.2786 279.605L32.1682 279.697L32.0579 279.789L31.9475 279.881L31.8372 279.973L31.7268 280.065L31.6165 280.157L31.5061 280.249L31.3957 280.341L31.2854 280.433L31.175 280.525L31.0647 280.617L30.9543 280.709L30.844 280.801L30.7336 280.892L30.6233 280.984L30.5129 281.076L30.4026 281.168L30.2922 281.26L30.1819 281.352L30.0715 281.444L29.9611 281.536L29.8508 281.628L29.7404 281.72L29.6301 281.831L29.5197 281.941L29.4094 282.051L29.299 282.162L29.1887 282.272L29.0783 282.382L28.968 282.493L28.8576 282.603L28.7472 282.713L28.6369 282.824L28.5265 282.934L28.4162 283.044L28.3058 283.155L28.1955 283.265L28.0851 283.375L27.9748 283.486L27.8644 283.596L27.7541 283.707L27.6437 283.817L27.5333 283.927L27.423 284.038L27.3126 284.148L27.2023 284.258L27.0919 284.369L26.9816 284.479L26.8712 284.589L26.7609 284.7L26.6505 284.81L26.5402 284.92L26.4298 285.031L26.3195 285.141L26.2091 285.27L26.0987 285.399L25.9884 285.527L25.878 285.656L25.7677 285.785L25.6573 285.914L25.547 286.042L25.4366 286.171L25.3263 286.3L25.2159 286.429L25.1056 286.557L24.8849 286.815L24.6641 287.072L24.4434 287.33L24.2227 287.587L24.002 287.845L23.7813 288.102L23.5606 288.36L23.3399 288.636L23.1192 288.912L22.8985 289.188L22.6778 289.463L22.4571 289.739L22.2364 290.015L22.0156 290.291L21.7949 290.567L21.5742 290.843L21.3535 291.137L21.1328 291.431L20.9121 291.726L20.6914 292.02L20.4707 292.314L20.25 292.609L20.0293 292.903L19.8086 293.197L19.5879 293.491L19.3671 293.804L19.1464 294.117L18.9257 294.429L18.705 294.742L18.4843 295.055L18.2636 295.368L18.0429 295.68L17.8222 295.993L17.6015 296.306L17.3808 296.618L17.1785 296.931L16.9761 297.244L16.7738 297.575L16.5715 297.906L16.3692 298.237L16.1669 298.568L15.9646 298.899L15.7622 299.23L15.5599 299.561L15.3576 299.892L15.1553 300.223L14.953 300.554L14.7507 300.885L14.5484 301.216L14.346 301.547L14.1437 301.878L13.9414 302.21L13.7391 302.541L13.5368 302.872L13.3345 303.203L13.1321 303.534L12.9298 303.865L12.7275 304.196L12.5252 304.545L12.3229 304.895L12.1206 305.244L11.9182 305.594L11.7159 305.943L11.532 306.293L11.3481 306.642L11.1642 306.992L10.9802 307.341L10.7963 307.691L10.6124 308.022L10.4285 308.353L10.2445 308.684L10.0606 309.015L9.87669 309.346L9.69277 309.677L9.50884 310.008L9.32492 310.339L9.141 310.67L8.97546 311.001L8.80993 311.332L8.64441 311.663L8.47888 311.994L8.38691 312.16L8.29495 312.326L8.22138 312.491L8.14781 312.657L8.07424 312.822L8.00067 312.988L7.9271 313.153L7.85354 313.319L7.77996 313.484L7.70639 313.65L7.63282 313.815L7.55926 313.981L7.48569 314.146L7.41212 314.312L7.33855 314.477L7.26498 314.643L7.19141 314.809L7.11784 314.974L7.04427 315.121L6.9707 315.268L6.89713 315.415L6.82356 315.563L6.74999 315.71L6.67642 315.857L6.60286 316.004L6.52928 316.151L6.45571 316.298L6.38214 316.445L6.30858 316.593L6.23501 316.74L6.16144 316.887L6.08786 317.034L6.0143 317.181L5.94073 317.328L5.88555 317.475L5.83037 317.623L5.7752 317.77L5.72002 317.917L5.66484 318.064L5.60967 318.211L5.55449 318.358L5.49931 318.505L5.44414 318.653L5.38896 318.8L5.33378 318.928L5.2786 319.057L5.22343 319.186L5.16825 319.315L4.70844 320.455L4.28541 321.595L3.88079 322.717L3.49454 323.839L3.1267 324.961L2.77724 326.083L2.44618 327.224L2.13351 328.364L1.83924 329.523L1.56335 330.7L1.30586 331.877L1.06675 333.072L0.864436 334.286L0.680515 335.519L0.514984 336.769L0.386238 338.02L0.275881 339.289L0.183921 340.558L0.11035 341.827L0.0551748 343.096L0.0183893 344.366V345.635L0 346.885V370.446L0.0367856 370.961L0.0919604 371.458L0.147135 371.697L0.202317 371.918L0.275881 372.138L0.367848 372.341L0.459809 372.525L0.570158 372.69L0.698904 372.837L0.827657 372.966L0.974793 373.076L1.12193 373.168L1.28747 373.242L1.45299 373.297H1.63692L1.82084 373.316H2.00477L2.20708 373.26L2.40939 373.205L2.61171 373.113L2.81403 373.003L3.01635 372.874L3.42098 372.58L3.82561 372.249L4.23024 371.881L7.98228 368.46L11.4952 365.296L14.7691 362.39L17.8222 359.742L20.673 357.332L23.3215 355.162L25.7677 353.212L28.0483 351.483L30.1635 349.957L32.1314 348.633L33.9707 347.474L35.6812 346.499L37.2997 345.69L38.8263 345.028L40.2976 344.494L41.7139 344.09L43.1117 343.795L44.4911 343.593L45.8889 343.483H47.3051H48.0592V323.453L184.347 338.517V362.078L339.247 383.468L348.866 384.958L353.391 385.841L357.731 386.871L361.87 388.085L365.806 389.501L369.521 391.138L373.015 392.996L376.271 395.092L379.287 397.428L382.046 400.003L384.529 402.817L386.736 405.852L388.63 409.089L390.231 412.529L391.518 416.152L392.474 419.941L393.1 423.859L393.394 427.905L393.339 432.062L392.953 436.292L392.235 440.596L391.187 444.955L389.826 449.332L388.171 453.728L386.221 458.142L384.014 462.557L381.586 466.952L376.142 475.707L370.22 484.462L268.694 632.486V664.14L392.916 545.011C414.453 524.356 433.545 524.356 455.082 545.011L579.304 664.14V632.486L477.778 484.462L471.856 475.707L466.412 466.952L463.984 462.557L461.777 458.142L459.827 453.728L458.172 449.332L456.811 444.955L455.763 440.596L455.045 436.292L454.659 432.062L454.604 427.905L454.898 423.859L455.523 419.941L456.48 416.152L457.767 412.529L459.367 409.089L461.262 405.852L463.469 402.817L465.952 400.003L468.711 397.428L471.727 395.092L474.983 392.996L478.477 391.138L482.192 389.501L486.128 388.085L490.267 386.871L494.607 385.841L499.132 384.958L508.751 383.468L663.651 362.078V338.517L799.939 323.453V343.483H800.693H802.109L803.507 343.593L804.886 343.795L806.284 344.09L807.7 344.494L809.172 345.028L810.698 345.69L812.317 346.499L814.027 347.474L815.866 348.633L817.834 349.957L819.95 351.483L822.23 353.212L824.676 355.162L827.325 357.332L830.176 359.742L833.229 362.39L836.503 365.296L840.016 368.46L843.768 371.881L844.172 372.249L844.577 372.58L844.982 372.874L845.184 373.003L845.386 373.113L845.589 373.205L845.791 373.26L845.993 373.297H846.177H846.361H846.545L846.71 373.224L846.876 373.15L847.023 373.058L847.17 372.948L847.299 372.819L847.428 372.672L847.538 372.506L847.63 372.322L847.722 372.12L847.796 371.899L847.851 371.679L847.906 371.439L847.961 370.943V370.428L847.998 369.931V345.635L848.66 345.671Z" fill="white"/>
</svg>
